<?xml version="1.0" encoding="UTF-8"?><svg id="Original_Logo" xmlns="http://www.w3.org/2000/svg" viewBox="0 0 2000 352.0558"><defs><style>.cls-1{fill:#ea5e28;stroke-width:0px;}</style></defs><path class="cls-1" d="m1728.8933,207.6893c.0059-27.2848-.3088-54.574.0782-81.8534.611-43.0725,44.5473-72.9844,84.6558-57.9522,24.8383,9.3091,41.0049,32.5963,41.0469,59.1356.0069,4.29.1218,8.5853-.0497,12.8688-.2548,6.3621-2.9751,9.6436-9.2771,10.2159-5.4283.493-10.9713.5014-16.4.0146-6.6481-.5961-9.6379-4.0829-10.0155-10.8068-.2501-4.4496.0039-8.9287-.2748-13.3753-.9052-14.4448-12.4235-25.7273-26.3151-25.9405-14.2582-.2189-25.9705,10.8276-27.1044,25.5872-.1182,1.538-.1541,3.0859-.1544,4.6291-.0078,51.824.005,103.648-.0175,155.4719-.0043,9.7658,2.7303,18.2714,10.8499,24.3748,7.9276,5.9591,16.673,7.0759,25.755,3.4188,9.4077-3.7885,16.1665-10.6723,16.6392-21.0137.7907-17.2967.3788-34.6477.5133-51.9756.0226-2.921-1.4812-3.7049-4.1667-3.8837-13.4903-.8987-13.8694-1.3714-13.8057-14.9418.0722-15.3514,5.8931-21.1464,21.2126-21.201,7.9372-.0282,15.8223-.039,22.5638,5.207,6.5301,5.0815,9.9689,11.7292,10.0009,19.9464.0873,22.4794.5503,44.9746-.0917,67.4362-1.2176,42.6-49.5101,71.7018-88.038,53.3006-24.8701-11.8781-37.4306-31.8333-37.58-59.3828-.1433-26.426-.0311-52.8534-.0253-79.2802Z"/><path class="cls-1" d="m1173.695,230.0014c3.4-17.9889,6.7941-35.979,10.201-53.9666,9.6991-51.2095,19.2925-102.4393,29.1734-153.6137,2.9643-15.3525,12.6793-22.6104,28.0746-22.0844,11.1246.3801,17.4431,7.0784,16.144,18.4608-1.1843,10.3751-3.4331,20.6351-5.3632,30.9176-15.6781,83.5213-31.3963,167.0351-47.0874,250.5539-1.8169,9.6708-3.292,19.4127-5.364,29.0274-4.3368,20.1244-23.283,28.5838-41.0521,18.4914-7.1228-4.0454-10.4528-10.7359-11.8858-18.3852-16.1241-86.0681-32.165-172.1516-48.2426-258.2285-2.8844-15.4429-5.8565-30.8695-8.7468-46.3114-2.2143-11.8299-.1858-18.5243,6.6303-22.2024,8.468-4.5695,22.2637-3.2741,28.6201,4.0564,4.0612,4.6837,7.7501,10.7604,8.8997,16.7332,12.5499,65.2083,24.5632,130.5198,36.7317,195.8015.6723,3.6068,1.425,7.1985,2.1403,10.7973.3757-.0157.7512-.0315,1.1269-.0472Z"/><path class="cls-1" d="m1891.5386,208.157c.0006-36.7063.0041-73.4126-.0021-110.1188-.0013-8.006.9884-15.6852,5.9558-22.4275,5.1377-6.9734,12.1184-10.9785,20.5087-11.1419,21.9346-.4274,43.8857-.4832,65.8219-.1467,10.4579.1603,16.4046,7.4095,16.1045,17.9813-.3094,10.8976-6.6483,17.3639-17.3622,17.4226-16.1264.0884-32.2554.1547-48.3796-.0553-4.5192-.0589-6.3291,1.0285-6.2936,5.9832.2126,29.6723.1931,59.3473.0121,89.02-.0277,4.5279,1.3187,5.9222,5.8389,5.8391,13.7202-.2527,27.45-.2067,41.1727-.0292,8.5468.1104,14.4376,4.5315,16.7299,11.9323,2.4591,7.9391.3386,16.5909-6.1194,20.729-3.2504,2.0827-7.5941,3.2761-11.4875,3.3923-13.5416.4044-27.1036.2656-40.6551.1-3.8999-.0476-5.4856,1.0534-5.4576,5.2212.1553,22.9832.1546,45.9687-.0024,68.9519-.0274,4.0178,1.5392,4.8605,5.179,4.8274,16.2971-.149,32.5969-.1391,48.8945-.0217,8.3025.0598,14.6913,4.4361,16.856,11.0958,2.6412,8.1252.712,17.0194-5.6906,21.3814-3.1874,2.1717-7.5569,3.562-11.4208,3.6289-20.0666.3481-40.1475.4261-60.2141.0725-18.5255-.3264-29.783-12.4466-29.9319-31.9754-.1999-26.2418-.0549-52.4862-.0573-78.7295-.001-10.9776-.0003-21.9552.0004-32.9328Z"/><path class="cls-1" d="m1362.3361,202.189c0-38.5925-.0426-77.1851.0654-115.7772.0109-3.8926.3552-7.9706,1.5494-11.6352,2.5382-7.7883,10.3545-11.5687,20.1693-10.4417,7.5677.8689,13.3335,6.2973,14.3822,13.9123.4891,3.551.5998,7.1766.6014,10.7686.0328,73.0672.0231,146.1343.0276,219.2014q.0005,7.3438,7.2707,7.3545c15.0974.0062,30.1949-.042,45.292.0182,12.2127.0486,18.9669,6.5013,19.0141,17.9931.047,11.4428-6.8577,18.2497-18.8244,18.2964-19.2146.075-38.4299.0989-57.6442-.002-18.9932-.0997-30.5664-10.2521-31.4583-29.2988-.9298-19.8547-.4389-39.7778-.4913-59.6712-.0534-20.2394-.0118-40.479-.0118-60.7185h.058Z"/><path class="cls-1" d="m1321.5305,208.0169c0,41.6899-.0064,83.3797.0041,125.0696.0029,11.3468-6.5676,18.4686-17.3442,18.7278-11.5124.2769-18.8127-6.475-18.98-18.2575-.234-16.4693-.0358-32.9447-.035-49.4175.0031-65.377.0011-130.7538.0032-196.1308,0-2.059-.064-4.123.0542-6.176.6656-11.5558,7.5183-17.883,19.0153-17.6154,10.8166.2518,17.1373,6.7392,17.1607,18.1939.0856,41.8685.0339,83.7373.0339,125.606h.0877Z"/><path class="cls-1" d="m1712.8728,330.972c-6.4022-33.8636-12.7311-67.7412-19.0836-101.6138-9.0465-48.2388-18.0897-96.4782-27.1317-144.7176,12.9554-12.9574,16.9766-16.979,17.476-17.4789-1.0638,1.0634-15.7003,15.699,18.0091-18.0306,6.2974-6.3012,7.6917-13.2079,4.2512-20.0579-3.6764-7.3205-11.5134-12.3285-18.8651-10.4492-4.3293,1.1069-8.6194,4.139-11.8823,7.3623-6.6587,6.5787-10.7347,10.6014-13.4811,13.3138-.0013-3.6104-.0024-16.499-.0039-21.4217-.0025-8.9083-4.0494-15.7187-11.1771-17.1891-8.0229-1.6551-16.8588-.5764-20.7281,5.9509-2.2788,3.8438-3.1684,9.0215-3.1962,13.6082-.0249,4.0884-.0456,16.2108-.0636,19.1814-3.3848-3.382-8.2652-8.2592-15.2138-15.2036-6.301-6.2972-13.2078-7.6915-20.0579-4.2513-7.3205,3.6767-12.3285,11.5137-10.449,18.8653,1.1068,4.3289,4.1387,8.6193,7.3623,11.8822,26.0431,26.3611,12.309,12.5173,33.962,34.1574l-.1972.0028c-9.0269,48.1585-18.0552,96.317-27.0865,144.4755-6.3524,33.8726-12.6814,67.7502-19.0836,101.6138-2.1231,11.2306.0572,17.3919,7.3536,19.9793,9.2043,3.2638,21.0437-.946,25.371-9.465,1.7544-3.4537,2.863-7.3606,3.5941-11.1896,6.4672-33.8709,12.8787-67.7524,19.2831-101.6351,4.049-21.2393,8.0728-42.4826,12.1046-63.7252.4241-.0652.8482-.1303,1.2725-.1961.8693,4.6429,1.7317,9.2869,2.6092,13.9287,9.5564,50.5465,19.0851,101.0987,28.7331,151.6278.7311,3.8289,1.8397,7.7359,3.5941,11.1896,4.3273,8.519,16.1667,12.7288,25.371,9.465,7.2965-2.5874,9.4768-8.7487,7.3536-19.9793Z"/><path class="cls-1" d="m1564.8467,328.8193c.8094-4.2815,1.6072-8.5658,2.4146-12.8478-10.3837.0074-20.7671.0238-31.1506-.0079-10.5597-.0325-9.9226,1.2125-9.9234-10.0434-.0065-74.4708.0042-148.9414-.0178-223.4122-.0028-8.9084-3.9007-14.7781-11.1773-17.189-7.7759-2.577-16.8585-.5766-20.7281,5.9509-2.2785,3.8438-3.1682,9.0215-3.1963,13.608-.2382,39.2928-.1366,78.5877-.1372,117.8816-.0003,38.4371-.0221,76.8735.0337,115.3106.0054,3.7541-.004,7.6214.8337,11.2418,3.3221,14.3568,13.6566,22.1138,29.8817,22.2829,15.1269.1576,30.256.1205,45.384.0416-2.8737-5.148-4.1793-12.4373-2.2171-22.8171Z"/><path class="cls-1" d="m100.5887,298.2421c6.3643-6.3666,9.5555-14.0821,9.5555-23.1351v-49.7919c0-4.6918-1.0932-8.8018-3.2682-12.3212-2.1863-3.5216-5.029-6.6178-8.5506-9.3043-3.5216-2.6797-7.3783-4.943-11.5676-6.7898-4.1961-1.84-8.1342-3.2704-11.8188-4.2753-9.3903-2.6797-18.6086-6.1131-27.6617-10.3114-9.0531-4.187-17.1013-9.3812-24.1423-15.5894-7.041-6.2014-12.6585-13.4936-16.8478-21.879-4.1961-8.3764-6.2874-18.1061-6.2874-29.169v-38.7268c0-10.7279,2.012-20.6998,6.0361-29.9249,4.0241-9.2183,9.5555-17.3525,16.5965-24.3935,7.041-7.041,15.2544-12.5725,24.6447-16.5965C56.6609,2.0098,66.5536,0,76.9511,0,87.6767,0,97.737,2.0098,107.1272,6.0339c9.3835,4.0241,17.5154,9.5555,24.3912,16.5965,6.869,7.041,12.3235,15.1752,16.3453,24.3935,4.0241,9.2251,6.0361,19.197,6.0361,29.9249v14.0821c0,9.7275-4.6985,14.5845-14.0821,14.5845h-15.0892c-9.7275,0-14.5845-4.857-14.5845-14.5845v-14.0821c0-9.0531-3.2682-16.8478-9.8067-23.3863s-14.3333-9.809-23.3863-9.809-16.7708,3.2704-23.1351,9.809c-6.3734,6.5386-9.5555,14.3333-9.5555,23.3863v38.7268c0,6.7106,2.6797,12.4932,8.0459,17.3502,5.3594,4.8638,10.8908,8.6366,16.5965,11.3163l10.5627,4.0241c9.7207,2.3493,19.111,5.6174,28.1641,9.8067,9.0531,4.1961,17.013,9.4763,23.8888,15.8429,6.869,6.3734,12.3235,13.8308,16.3453,22.3815,4.0241,8.5484,6.0361,18.1921,6.0361,28.9178v49.7919c0,10.7347-2.012,20.7926-6.0361,30.1761-4.0218,9.3903-9.5555,17.5245-16.5965,24.3912-7.041,6.8758-15.1729,12.3235-24.3912,16.3453-9.2273,4.0241-19.1993,6.0361-29.9249,6.0361-10.3975,0-20.2902-2.012-29.6737-6.0361-9.3903-4.0218-17.6037-9.5555-24.6447-16.5965-7.041-7.041-12.5725-15.2522-16.5965-24.6425-4.0241-9.3835-6.0361-19.2785-6.0361-29.6737v-14.5868c0-9.3812,4.857-14.0821,14.5868-14.0821h15.5894c9.3835,0,14.0843,4.7008,14.0843,14.0821v14.5868c0,9.0531,3.1822,16.7686,9.5555,23.1351,6.3643,6.3734,14.0821,9.5555,23.1351,9.5555s16.927-3.1822,23.6376-9.5555Z"/><path class="cls-1" d="m207.7007,333.9842V100.2957h-19.125c-5.4799,0-9.8564-1.6412-13.1425-4.9273-3.2842-3.2861-4.9273-7.6626-4.9273-13.1425,0-5.4743,1.643-9.7862,4.9273-12.9373,3.2861-3.1438,7.6626-4.7221,13.1425-4.7221h82.3737c5.4743,0,9.7862,1.5784,12.9373,4.7221,3.1438,3.1512,4.7221,7.463,4.7221,12.9373,0,5.4799-1.5784,9.8564-4.7221,13.1425-3.1512,3.2861-7.463,4.9273-12.9373,4.9273h-27.1055v233.6885c0,5.4817-1.643,9.8582-4.9291,13.1425-3.2861,3.2861-7.6681,4.9291-13.1425,4.9291-5.4799,0-9.8564-1.643-13.1425-4.9291-3.2861-3.2842-4.9291-7.6607-4.9291-13.1425Z"/><path class="cls-1" d="m315.3058,334.3964c-1.0978,5.4799-3.5633,9.7917-7.3927,12.9355-3.8387,3.1512-8.4906,4.724-13.9649,4.724-5.4799,0-9.5865-1.5728-12.32-4.724-2.7409-3.1438-3.5615-7.4556-2.4655-12.9355l47.2304-252.1704c1.0923-5.4743,3.5559-9.7862,7.3927-12.9373,3.8313-3.1438,8.485-4.7221,13.9649-4.7221,5.4725,0,10.1262,1.5784,13.9631,4.7221,3.8313,3.1512,6.2949,7.463,7.3927,12.9373l47.2304,252.1704c1.0904,5.4799.3401,9.7917-2.2585,12.9355-2.6059,3.1512-6.6424,4.724-12.1167,4.724-5.4799,0-10.1318-1.5728-13.9631-4.724-3.8368-3.1438-6.3023-7.4556-7.3927-12.9355l-6.16-32.8571h-52.9801l-6.16,32.8571Zm52.1577-68.5881l-19.7128-105.55-19.7146,105.55h39.4274Z"/><path class="cls-1" d="m549.4047,347.5388c-4.6593-3.0107-8.0803-6.9825-10.2685-11.9116l-41.0686-98.5675h-23.8213v96.9245c0,5.4817-1.643,9.8582-4.9291,13.1425-3.2842,3.2861-7.6681,4.9291-13.1425,4.9291-5.4799,0-9.8564-1.643-13.1406-4.9291-3.2861-3.2842-4.9291-7.6607-4.9291-13.1425V95.3684c0-9.3056,2.8037-16.7686,8.4185-22.3834,5.6092-5.6092,13.0722-8.4185,22.3834-8.4185h32.0346c8.7604,0,16.9738,1.6412,24.6419,4.9273,7.6626,3.2861,14.305,7.803,19.9198,13.5528,5.6092,5.7497,10.0615,12.3921,13.3476,19.9198,3.2861,7.5332,4.9291,15.6763,4.9291,24.4367v46.8201c0,11.7748-2.8758,22.5239-8.6255,32.2398-5.7497,9.7215-13.83,17.4543-24.2316,23.204l43.9444,105.9603c2.1883,4.9291,2.3232,8.9009.4121,11.9116-1.9203,3.0162-5.6148,4.517-11.0891,4.517-5.4799,0-10.409-1.5007-14.7855-4.517Zm-75.1584-146.6204h26.6952c7.3927,0,13.7598-2.5986,19.0973-7.803,5.3394-5.199,8.01-11.4994,8.01-18.8922v-46.8201c0-7.3927-2.6706-13.7579-8.01-19.0973-5.3376-5.3394-11.7046-8.01-19.0973-8.01h-26.6952v100.6227Z"/><path class="cls-1" d="m626.6145,333.9842V100.2957h-26.6952c-5.4799,0-9.8564-1.6412-13.1425-4.9273-3.2842-3.2861-4.9273-7.6626-4.9273-13.1425,0-5.4743,1.643-9.7862,4.9273-12.9373,3.2861-3.1438,7.6626-4.7221,13.1425-4.7221h89.9439c5.4743,0,9.7862,1.5784,12.9373,4.7221,3.1438,3.1512,4.7221,7.463,4.7221,12.9373,0,5.4799-1.5784,9.8564-4.7221,13.1425-3.1512,3.2861-7.463,4.9273-12.9373,4.9273h-27.1055v233.6885c0,5.4817-1.643,9.8582-4.9291,13.1425-3.2861,3.2861-7.6681,4.9291-13.1425,4.9291-5.4799,0-9.8564-1.643-13.1425-4.9291-3.2861-3.2842-4.9291-7.6607-4.9291-13.1425Z"/><path class="cls-1" d="m721.0772,82.6363c0-5.4743,1.643-9.8564,4.9291-13.1425,3.2842-3.2861,7.6607-4.9273,13.1425-4.9273,5.4725,0,9.8564,1.6412,13.1425,4.9273,3.2842,3.2861,4.9273,7.6681,4.9273,13.1425v206.583c0,7.3927,2.5986,13.6932,7.803,18.8922,5.199,5.2045,11.4994,7.803,18.8922,7.803s13.7598-2.5986,19.0973-7.803c5.3394-5.199,8.01-11.4994,8.01-18.8922V82.226c0-5.4743,1.643-9.7862,4.9273-12.9373,3.2861-3.1438,7.6626-4.7221,13.1425-4.7221,5.4743,0,9.7862,1.5784,12.9373,4.7221,3.1456,3.1512,4.724,7.463,4.724,12.9373v206.9933c0,8.766-1.643,16.9793-4.9291,24.6419-3.2861,7.6681-7.803,14.3105-13.5528,19.9179-5.7497,5.6148-12.3921,10.0634-19.9198,13.3476-7.5332,3.2861-15.6763,4.9291-24.4367,4.9291-8.4887,0-16.569-1.643-24.2316-4.9291-7.6681-3.2842-14.3734-7.803-20.1231-13.5528-5.7497-5.7497-10.2685-12.4549-13.5528-20.1231-3.2861-7.6626-4.9291-15.7429-4.9291-24.2316V82.6363Z"/><path class="cls-1" d="m888.231,72.7799c5.4743-5.4743,12.8671-8.2133,22.1782-8.2133h32.0346c8.7604,0,16.9738,1.6412,24.6419,4.9273,7.6626,3.2861,14.305,7.803,19.9198,13.5528,5.6092,5.7497,10.0615,12.3921,13.3476,19.9198,3.2861,7.5332,4.9291,15.6763,4.9291,24.4367v46.8201c0,8.766-1.643,16.9793-4.9291,24.6419-3.2861,7.6681-7.803,14.3105-13.5528,19.9179-5.7497,5.6148-12.3921,10.0634-19.9198,13.3476-7.5332,3.2861-15.6763,4.9291-24.4367,4.9291h-26.6952v96.9245c0,5.4817-1.643,9.8582-4.9291,13.1425-3.2842,3.2861-7.6681,4.9291-13.1425,4.9291-5.4799,0-9.8564-1.643-13.1406-4.9291-3.2861-3.2842-4.9291-7.6607-4.9291-13.1425V95.3684c0-9.3056,2.8739-16.8388,8.6236-22.5885Zm73.5154,120.3355c5.199-5.199,7.8049-11.4994,7.8049-18.8922v-46.8201c0-7.3927-2.6706-13.7579-8.01-19.0973-5.3376-5.3394-11.7046-8.01-19.0973-8.01h-26.6952v100.6227h26.6952c7.3927,0,13.8226-2.5986,19.3025-7.803Z"/></svg>